<svg xmlns="http://www.w3.org/2000/svg" viewBox="0 0 56.38 56.64"><defs><style>.cls-1{fill:#00529b;}.cls-2{fill:#f7b817;}</style></defs><title>eCampus Logo</title><g id="Layer_2" data-name="Layer 2"><g id="eCampus"><g id="eCampus_Logo" data-name="eCampus Logo"><path class="cls-1" d="M19.19,50.68a1.85,1.85,0,0,0-1.82,0A4.65,4.65,0,0,0,15,54.54a2,2,0,0,0,.85,1.91,1.43,1.43,0,0,0,.74.19,2.16,2.16,0,0,0,1.07-.32,5.12,5.12,0,0,0,2.23-3.86h0A2,2,0,0,0,19.19,50.68Z"/><path class="cls-1" d="M11.42,49.91a1.78,1.78,0,0,0-1.71-.46h0A5.05,5.05,0,0,0,6.3,53.27,2.77,2.77,0,0,0,6.74,56a1.51,1.51,0,0,0,1.06.41,2.5,2.5,0,0,0,.64-.1,5.86,5.86,0,0,0,3.32-3.9A2.56,2.56,0,0,0,11.42,49.91Z"/><path class="cls-1" d="M28.25,51.13a2.09,2.09,0,0,0-2,.21h0a4.09,4.09,0,0,0-2.12,3.54A1.77,1.77,0,0,0,25,56.47a1.59,1.59,0,0,0,.69.16A2.42,2.42,0,0,0,27,56.17a4.63,4.63,0,0,0,2-3.75A1.56,1.56,0,0,0,28.25,51.13Z"/><path class="cls-1" d="M39,52.43a2,2,0,0,0-1-1.42,2.71,2.71,0,0,0-2.41,0h0a3.66,3.66,0,0,0-2.29,3.71,1.93,1.93,0,0,0,1,1.41,2.3,2.3,0,0,0,1.08.26,3.19,3.19,0,0,0,1.31-.3A3.9,3.9,0,0,0,39,52.43Z"/><path class="cls-1" d="M17.32,44.45a1.86,1.86,0,0,0-1.83-.23,4.92,4.92,0,0,0-2.86,3.84,2.16,2.16,0,0,0,.73,2,1.56,1.56,0,0,0,.94.31,2.23,2.23,0,0,0,.87-.2,5.19,5.19,0,0,0,2.76-3.75A2.15,2.15,0,0,0,17.32,44.45Z"/><path class="cls-1" d="M26.41,45.88a2.16,2.16,0,0,0-2.1-.09,4.7,4.7,0,0,0-2.77,3.53,1.85,1.85,0,0,0,.67,1.79,1.64,1.64,0,0,0,.91.26,2.74,2.74,0,0,0,1.21-.32A5.24,5.24,0,0,0,27,47.37,1.63,1.63,0,0,0,26.41,45.88Z"/><path class="cls-1" d="M35.54,46.47a3,3,0,0,0-2.71,0,3.88,3.88,0,0,0-2.72,3.47,1.53,1.53,0,0,0,.73,1.29,1.86,1.86,0,0,0,.95.24A3.75,3.75,0,0,0,33.37,51c1.38-.67,2.8-2.1,2.8-3.35A1.41,1.41,0,0,0,35.54,46.47Z"/><path class="cls-1" d="M48.55,53.33c-.53-1-2.17-1.35-3.56-.82a2.77,2.77,0,0,0-1.69,1.54,1.74,1.74,0,0,0,.11,1.43h0a2.23,2.23,0,0,0,2,1,4,4,0,0,0,1.46-.3,3,3,0,0,0,1.74-1.6A1.53,1.53,0,0,0,48.55,53.33Z"/><path class="cls-1" d="M24.3,40.83a2,2,0,0,0-2-.29,4.25,4.25,0,0,0-2.92,3.24,1.67,1.67,0,0,0,.53,1.59,1.6,1.6,0,0,0,1,.32,3,3,0,0,0,1-.22,4.84,4.84,0,0,0,2.77-3.09A1.61,1.61,0,0,0,24.3,40.83Z"/><path class="cls-1" d="M46.21,48a3.46,3.46,0,0,0-2.61-.52,4.36,4.36,0,0,0-2.91,1.38,1.88,1.88,0,0,0-.41,1.42,2,2,0,0,0,.86,1.36,3.48,3.48,0,0,0,2.07.63,3.82,3.82,0,0,0,.68-.06c1.81-.29,3.13-1.56,3-2.91A1.84,1.84,0,0,0,46.21,48Z"/><path class="cls-1" d="M34,42.27a2.71,2.71,0,0,0-2.53-.22A4.27,4.27,0,0,0,28.63,45a1.31,1.31,0,0,0,.49,1.29,1.57,1.57,0,0,0,1,.31,3.35,3.35,0,0,0,1.27-.29c1.32-.57,2.84-1.77,3-2.87h0A1.17,1.17,0,0,0,34,42.27Z"/><path class="cls-1" d="M44.47,44a3.7,3.7,0,0,0-3-.64c-1.91.24-3.3,1.26-3.3,2.42a1.21,1.21,0,0,0,.48,1,2.71,2.71,0,0,0,1.76.51,5.6,5.6,0,0,0,1-.11c1.47-.28,3.14-1.08,3.32-2.15A1.16,1.16,0,0,0,44.47,44Z"/><path class="cls-1" d="M56.37,53.05h0c-.17-1.14-1.75-2-3.13-2.14a2.77,2.77,0,0,0-2.28.71,1.43,1.43,0,0,0-.37,1.24c.19,1.12,1.45,2,3.07,2h.27A2.79,2.79,0,0,0,56,54.18,1.37,1.37,0,0,0,56.37,53.05Z"/><path class="cls-1" d="M33,37.51A2.16,2.16,0,0,0,31,37.1a4,4,0,0,0-3,2.36,1.39,1.39,0,0,0,.27,1.42,1.59,1.59,0,0,0,1.16.43,3.24,3.24,0,0,0,.84-.13,4.84,4.84,0,0,0,3-2.44A1.22,1.22,0,0,0,33,37.51Z"/><path class="cls-1" d="M43.39,40.11a3,3,0,0,0-2.6-.8c-1.82.08-3.44.91-3.76,1.92a1.05,1.05,0,0,0,.19,1,2.33,2.33,0,0,0,1.8.6,6.91,6.91,0,0,0,.81,0c1.49-.18,3.19-.78,3.63-1.71A1,1,0,0,0,43.39,40.11Z"/><path class="cls-1" d="M55,47.31a4,4,0,0,0-2.75-1.07,4.15,4.15,0,0,0-3,.69,1.24,1.24,0,0,0-.45.88,1.2,1.2,0,0,0,.35.9,4.11,4.11,0,0,0,2.82.95h.13c1.69,0,3-.61,3.1-1.52h0A1.06,1.06,0,0,0,55,47.31Z"/><path class="cls-1" d="M54.73,43.5c-.4-.72-1.68-1.09-2.75-1.21-1.65-.17-3.65.24-4,1.21a.94.94,0,0,0,.1.86c.39.59,1.49,1,2.95,1.06h.54c1.39,0,2.83-.29,3.21-1.1A.87.87,0,0,0,54.73,43.5Z"/><path class="cls-1" d="M43,35.86c-.36-.57-1.31-.86-2.63-.81-1.5.07-3.36.75-3.75,1.74a1,1,0,0,0,.13,1,2.47,2.47,0,0,0,2,.68l.6,0c1.43-.14,3.18-.69,3.67-1.57h0A.94.94,0,0,0,43,35.86Z"/><path class="cls-1" d="M53.77,39.92c-.41-.88-2.14-1.14-2.67-1.2-1.63-.19-3.53.1-4,1a.88.88,0,0,0,0,.85c.4.7,1.69.92,2.71,1,.14,0,.43,0,.79,0,1,0,2.59-.13,3.08-.87A.83.83,0,0,0,53.77,39.92Z"/><path class="cls-1" d="M53.68,36c-.33-.86-2-1.14-2.55-1.2-1.5-.19-3.32,0-3.91.82a.88.88,0,0,0-.13.9c.24.55,1.1.9,2.53,1a9.66,9.66,0,0,0,1,.05c1.09,0,2.39-.16,2.9-.75A.79.79,0,0,0,53.68,36Z"/><path class="cls-2" d="M27.73,6c1.28-.83,1.47-2.1.37-2.87a4.5,4.5,0,0,0-4.57.25C22,4.5,22,5.8,23.25,6.4A4.91,4.91,0,0,0,27.73,6Z"/><path class="cls-2" d="M16.87,4.54c1.26-1.1,1.39-2.51.25-3.18s-3.28-.23-4.56,1C11,3.76,11.16,5.17,12.4,5.63A4.81,4.81,0,0,0,16.87,4.54Z"/><path class="cls-2" d="M16.88,12.91c.95-1.94.24-3.61-1.66-3.73a4.83,4.83,0,0,0-4.75,3c-1.07,2.46,0,4,1.86,3.81A5.23,5.23,0,0,0,16.88,12.91Z"/><path class="cls-2" d="M15.54,23.79c.55-2.08-.47-3.58-2.35-3.34a4.85,4.85,0,0,0-4.1,3.81c-.58,2.62.73,3.91,2.56,3.38A5.23,5.23,0,0,0,15.54,23.79Z"/><path class="cls-2" d="M6.45,33.05c.65-2.18-.1-3.93-1.75-3.94S1,31.13.41,33.45c-.72,2.75.31,4.32,1.93,4S5.78,35.25,6.45,33.05Z"/><path class="cls-2" d="M6.19,21.68c.76-2,.16-3.55-1.42-3.54S1.14,20,.4,22.1C-.47,24.6.41,26,2,25.71S5.41,23.67,6.19,21.68Z"/><path class="cls-2" d="M6.2,11.74c1-1.78.74-3.38-.74-3.61S1.75,9.37.71,11.27C-.51,13.54.09,15,1.6,15A6.32,6.32,0,0,0,6.2,11.74Z"/><path class="cls-2" d="M6.45,3c.72-1.51.28-2.86-1-3s-3.11,1.09-3.8,2.7C.8,4.65,1.47,5.89,2.79,5.82A4.8,4.8,0,0,0,6.45,3Z"/><path class="cls-2" d="M14.85,36.07c.43-2.12-.67-3.55-2.54-3.2a4.84,4.84,0,0,0-3.87,4c-.43,2.65,1,3.86,2.75,3.23A5.25,5.25,0,0,0,14.85,36.07Z"/><path class="cls-2" d="M24.22,30.21c1.11-1.86.54-3.58-1.35-3.86a4.84,4.84,0,0,0-5,2.54c-1.27,2.37-.36,4,1.54,4A5.23,5.23,0,0,0,24.22,30.21Z"/><path class="cls-2" d="M25.07,21.81c1.25-1.33,1.19-2.95-.17-3.67s-3.71-.09-5,1.35c-1.5,1.73-1.15,3.34.29,3.81A5,5,0,0,0,25.07,21.81Z"/><path class="cls-2" d="M34.18,27.34c1.28-1.59,1-3.27-.74-3.79a4.58,4.58,0,0,0-5,1.71c-1.51,2-.88,3.66.9,3.91A5,5,0,0,0,34.18,27.34Z"/><path class="cls-2" d="M34.89,19.91c1.22-1,1.37-2.35.3-3.12s-3.12-.53-4.37.54c-1.47,1.27-1.37,2.68-.21,3.25A4.27,4.27,0,0,0,34.89,19.91Z"/><path class="cls-2" d="M35.87,13.65c1.11-.77,1.21-1.89.2-2.54a3.94,3.94,0,0,0-4,.36c-1.32,1-1.2,2.16-.11,2.65A4.28,4.28,0,0,0,35.87,13.65Z"/><path class="cls-2" d="M37.72,8.07c1.08-.64,1.3-1.75.47-2.51a3.3,3.3,0,0,0-3.65-.06c-1.31.86-1.32,2-.4,2.62A3.53,3.53,0,0,0,37.72,8.07Z"/><path class="cls-2" d="M43.56,25.58c1.34-1.25,1.22-2.73-.31-3.33a4.45,4.45,0,0,0-4.78,1c-1.59,1.62-1.16,3.07.46,3.45A4.79,4.79,0,0,0,43.56,25.58Z"/><path class="cls-2" d="M44.36,19.3c1.09-.79,1.24-1.92.31-2.57a3.67,3.67,0,0,0-3.86.39c-1.31,1-1.24,2.2-.22,2.68A3.93,3.93,0,0,0,44.36,19.3Z"/><path class="cls-2" d="M45.53,14.3c1-.57,1.13-1.46.31-2a3.59,3.59,0,0,0-3.44.14c-1.19.76-1.15,1.67-.25,2.11A3.92,3.92,0,0,0,45.53,14.3Z"/><path class="cls-2" d="M46.54,10.4c.94-.37,1.21-1.12.58-1.72a3.18,3.18,0,0,0-3-.34c-1.14.5-1.25,1.3-.53,1.8A3.47,3.47,0,0,0,46.54,10.4Z"/><path class="cls-2" d="M53.3,24.08c1.2-1,1.16-2.23-.14-2.78A4,4,0,0,0,49,22c-1.44,1.29-1.13,2.52.25,2.89A4.32,4.32,0,0,0,53.3,24.08Z"/><path class="cls-2" d="M53.66,18.87c1-.65,1.21-1.64.39-2.25a3.45,3.45,0,0,0-3.53.21c-1.24.86-1.23,1.88-.32,2.34A3.74,3.74,0,0,0,53.66,18.87Z"/><path class="cls-2" d="M54.56,13.9c.85-.43,1-1.15.34-1.63a3.16,3.16,0,0,0-2.92,0c-1,.57-1,1.32-.29,1.71A3.43,3.43,0,0,0,54.56,13.9Z"/><path class="cls-2" d="M6.66,44.16c.4-2.2-.77-3.65-2.69-3.25A5,5,0,0,0,.06,45.17c-.38,2.74,1.08,4,2.91,3.27A5.41,5.41,0,0,0,6.66,44.16Z"/><path class="cls-2" d="M26,13.82c1.21-1,1.33-2.45.2-3.21s-3.21-.44-4.44.69c-1.46,1.36-1.32,2.79-.11,3.34A4.4,4.4,0,0,0,26,13.82Z"/></g></g></g></svg>